<?xml version="1.0" standalone="no"?>
<!DOCTYPE svg PUBLIC "-//W3C//DTD SVG 20010904//EN"
 "http://www.w3.org/TR/2001/REC-SVG-20010904/DTD/svg10.dtd">
<svg version="1.0" xmlns="http://www.w3.org/2000/svg"
 width="500.000000pt" height="500.000000pt" viewBox="0 0 500.000000 500.000000"
 preserveAspectRatio="xMidYMid meet">

<g transform="translate(0.000000,500.000000) scale(0.100000,-0.100000)"
fill="#00DF9A" stroke="none">
<path d="M1343 3901 c-92 -65 -216 -199 -277 -300 -58 -96 -112 -235 -132
-340 -18 -91 -20 -295 -4 -382 47 -257 186 -484 392 -639 89 -67 118 -73 149
-30 41 57 36 72 -38 131 -190 149 -310 333 -349 537 -29 150 -14 355 36 497
43 124 158 282 272 375 116 94 111 88 104 118 -6 26 -57 82 -75 82 -4 0 -39
-22 -78 -49z"/>
<path d="M3541 3923 c-43 -39 -50 -77 -20 -102 131 -109 173 -148 216 -203
147 -185 201 -355 190 -605 -6 -144 -22 -214 -73 -322 -61 -131 -175 -267
-307 -367 -42 -31 -48 -40 -42 -63 9 -40 39 -76 67 -79 32 -4 163 92 238 175
105 114 190 266 236 419 36 120 45 357 19 485 -41 204 -129 371 -275 520 -83
84 -189 169 -212 169 -4 0 -21 -12 -37 -27z"/>
<path d="M1840 3248 c-50 -26 -65 -78 -68 -245 -4 -175 10 -247 54 -282 25
-20 40 -21 229 -21 l202 0 26 25 c36 37 51 111 51 255 0 144 -15 218 -51 251
-24 23 -30 24 -221 27 -144 2 -204 -1 -222 -10z"/>
<path d="M2844 3241 c-46 -28 -59 -86 -59 -266 0 -122 3 -159 18 -198 30 -76
33 -77 262 -77 229 0 232 1 262 77 26 70 26 336 0 406 -29 73 -43 77 -264 77
-166 0 -192 -2 -219 -19z"/>
<path d="M2278 2354 c-164 -84 -186 -102 -172 -137 3 -9 85 -58 182 -108 l176
-92 18 23 c39 48 28 60 -109 129 l-128 63 128 64 c101 51 127 68 127 85 0 30
-18 59 -38 59 -9 -1 -92 -39 -184 -86z"/>
<path d="M2640 2421 c-25 -48 -16 -58 117 -125 l128 -64 -128 -63 c-137 -69
-148 -81 -109 -129 l19 -23 176 92 c97 51 179 97 183 102 3 6 3 21 0 34 -5 19
-41 41 -175 109 -94 47 -177 86 -185 86 -8 0 -20 -9 -26 -19z"/>
<path d="M1432 1809 c-59 -11 -102 -38 -125 -77 -15 -25 -19 -51 -18 -122 1
-84 -1 -93 -24 -115 -13 -14 -36 -25 -50 -25 -44 0 -65 -17 -65 -53 0 -39 15
-57 47 -57 31 0 79 -25 87 -45 3 -9 6 -61 6 -114 0 -85 3 -103 23 -132 30 -45
85 -71 167 -77 66 -4 67 -4 74 22 11 45 -2 76 -34 76 -40 0 -89 20 -100 40 -6
10 -10 59 -10 108 0 101 -13 127 -78 161 l-37 19 26 7 c15 4 40 20 55 36 26
27 29 38 32 107 1 42 5 86 7 98 5 24 43 44 83 44 15 0 32 4 38 8 18 12 25 48
15 76 -12 29 -35 32 -119 15z"/>
<path d="M3580 1795 c-11 -29 -5 -65 14 -77 6 -4 27 -8 46 -8 63 -1 74 -19 80
-125 6 -103 20 -130 82 -156 l30 -12 -33 -18 c-63 -32 -74 -52 -77 -148 -1
-47 -5 -96 -8 -109 -5 -26 -56 -52 -103 -52 -23 0 -30 -5 -33 -25 -3 -14 -3
-37 0 -51 5 -26 6 -26 72 -22 82 6 137 32 167 77 20 29 23 47 23 132 0 53 3
105 6 114 8 20 56 45 87 45 32 0 47 18 47 57 0 36 -21 53 -65 53 -14 0 -37 11
-51 25 -22 23 -24 31 -23 114 2 72 -2 96 -17 123 -25 43 -91 75 -171 84 -62 6
-63 6 -73 -21z"/>
<path d="M1756 1584 c-8 -22 -7 -67 2 -82 7 -9 56 -12 213 -10 l204 3 0 50 0
50 -206 3 c-182 2 -207 0 -213 -14z"/>
<path d="M2356 1584 c-8 -22 -7 -67 2 -82 7 -9 56 -12 213 -10 l204 3 0 50 0
50 -206 3 c-182 2 -207 0 -213 -14z"/>
<path d="M2954 1586 c-3 -8 -4 -31 -2 -52 l3 -39 204 -3 c220 -3 221 -2 221
50 0 60 6 58 -216 58 -166 0 -206 -3 -210 -14z"/>
<path d="M1761 1366 c-7 -8 -11 -32 -9 -53 l3 -38 210 0 210 0 3 44 c2 28 -1
47 -10 52 -7 5 -99 9 -204 9 -154 0 -194 -3 -203 -14z"/>
<path d="M2361 1366 c-7 -8 -11 -32 -9 -53 l3 -38 210 0 210 0 3 44 c2 28 -1
47 -10 52 -7 5 -99 9 -204 9 -154 0 -194 -3 -203 -14z"/>
<path d="M2962 1371 c-9 -5 -12 -24 -10 -52 l3 -44 210 0 210 0 3 38 c6 66 2
67 -212 67 -105 0 -197 -4 -204 -9z"/>
</g>
</svg>
